{
    "accessors": [
        {
            "bufferView": 4,
            "byteOffset": 0,
            "componentType": 5126,
            "count": 161,
            "max": [
                0,
                0,
                0
            ],
            "min": [
                0.0,
                0.0,
                0.0
            ],
            "name": "accessor_buffer_Suzanne_SuzanneAction_0",
            "type": "VEC3"
        },
        {
            "bufferView": 2,
            "byteOffset": 0,
            "componentType": 5123,
            "count": 2904,
            "max": [
                1965
            ],
            "min": [
                0
            ],
            "name": "accessor_buffer_Suzanne_0",
            "type": "SCALAR"
        },
        {
            "bufferView": 3,
            "byteOffset": 0,
            "componentType": 5126,
            "count": 161,
            "max": [
                6.666666666666679
            ],
            "min": [
                0
            ],
            "name": "accessor_buffer_SuzanneAction_time_0",
            "type": "SCALAR"
        },
        {
            "bufferView": 6,
            "byteOffset": 0,
            "componentType": 5126,
            "count": 161,
            "max": [
                1.0,
                1.0,
                1.0
            ],
            "min": [
                0.5,
                0.5,
                0.5
            ],
            "name": "accessor_buffer_Suzanne_SuzanneAction_2",
            "type": "VEC3"
        },
        {
            "bufferView": 5,
            "byteOffset": 0,
            "componentType": 5126,
            "count": 161,
            "max": [
                0,
                0,
                0.9999958872795105,
                1.0
            ],
            "min": [
                0.0,
                0.0,
                -0.9999333620071411,
                -0.005055123940110207
            ],
            "name": "accessor_buffer_Suzanne_SuzanneAction_1",
            "type": "VEC4"
        },
        {
            "bufferView": 0,
            "byteOffset": 0,
            "componentType": 5126,
            "count": 1966,
            "max": [
                1.3671875,
                0.8515625,
                0.984375
            ],
            "min": [
                -1.3671875,
                -0.8515625,
                -0.984375
            ],
            "name": "accessor_buffer_Suzanne_POSITION_0",
            "type": "VEC3"
        },
        {
            "bufferView": 1,
            "byteOffset": 0,
            "componentType": 5126,
            "count": 1966,
            "max": [
                1.0,
                0.9864740371704102,
                0.9970182180404663
            ],
            "min": [
                -1.0,
                -1.0,
                -0.992402970790863
            ],
            "name": "accessor_buffer_Suzanne_NORMAL_0",
            "type": "VEC3"
        }
    ],
    "animations": [
        {
            "channels": [
                {
                    "sampler": 0,
                    "target": {
                        "node": 2,
                        "path": "translation"
                    }
                },
                {
                    "sampler": 1,
                    "target": {
                        "node": 2,
                        "path": "rotation"
                    }
                },
                {
                    "sampler": 2,
                    "target": {
                        "node": 2,
                        "path": "scale"
                    }
                }
            ],
            "name": "SuzanneAction",
            "samplers": [
                {
                    "input": 2,
                    "interpolation": "LINEAR",
                    "output": 0
                },
                {
                    "input": 2,
                    "interpolation": "LINEAR",
                    "output": 4
                },
                {
                    "input": 2,
                    "interpolation": "LINEAR",
                    "output": 3
                }
            ]
        }
    ],
    "asset": {
        "version": "2.0"
    },
    "bufferViews": [
        {
            "buffer": 0,
            "byteLength": 23592,
            "byteOffset": 0,
            "byteStride": 12,
            "name": "bufferView_buffer_Suzanne_POSITION_0",
            "target": 34962
        },
        {
            "buffer": 0,
            "byteLength": 23592,
            "byteOffset": 23592,
            "byteStride": 12,
            "name": "bufferView_buffer_Suzanne_NORMAL_0",
            "target": 34962
        },
        {
            "buffer": 0,
            "byteLength": 5808,
            "byteOffset": 47184,
            "name": "bufferView_buffer_Suzanne_0",
            "target": 34963
        },
        {
            "buffer": 0,
            "byteLength": 644,
            "byteOffset": 52992,
            "byteStride": 4,
            "name": "bufferView_buffer_SuzanneAction_time_0"
        },
        {
            "buffer": 0,
            "byteLength": 1932,
            "byteOffset": 53636,
            "byteStride": 12,
            "name": "bufferView_buffer_Suzanne_SuzanneAction_0"
        },
        {
            "buffer": 0,
            "byteLength": 2576,
            "byteOffset": 55568,
            "byteStride": 16,
            "name": "bufferView_buffer_Suzanne_SuzanneAction_1"
        },
        {
            "buffer": 0,
            "byteLength": 1932,
            "byteOffset": 58144,
            "byteStride": 12,
            "name": "bufferView_buffer_Suzanne_SuzanneAction_2"
        }
    ],
    "buffers": [
        {
            "byteLength": 60076,
            "name": "buffer_suzanne",
            "uri": "buffer_suzanne.bin"
        }
    ],
    "cameras": [
        {
            "name": "Camera",
            "perspective": {
                "aspectRatio": 1.703595982340029,
                "yfov": 0.5033799409866333,
                "zfar": 100.0,
                "znear": 0.10000000149011612
            },
            "type": "perspective"
        }
    ],
    "materials": [
        {
            "emissiveFactor": [
                0.0,
                0.0,
                0.0
            ],
            "name": "Material.002",
            "pbrMetallicRoughness": {
                "baseColorFactor": [
                    0.64000004529953,
                    0.64000004529953,
                    0.64000004529953,
                    1.0
                ],
                "metallicFactor": 0.0,
                "roughnessFactor": 1.0
            }
        }
    ],
    "meshes": [
        {
            "name": "Suzanne",
            "primitives": [
                {
                    "attributes": {
                        "NORMAL": 6,
                        "POSITION": 5
                    },
                    "indices": 1,
                    "material": 0,
                    "mode": 4
                }
            ]
        }
    ],
    "nodes": [
        {
            "camera": 0,
            "name": "Camera",
            "rotation": [
                0.483536034822464,
                0.20870360732078552,
                0.33687159419059753,
                0.7804827094078064
            ],
            "scale": [
                1.0,
                1.0,
                1.0
            ],
            "translation": [
                7.481131553649902,
                -6.5076398849487305,
                5.34366512298584
            ]
        },
        {
            "name": "Lamp",
            "rotation": [
                0.16907575726509094,
                0.27217137813568115,
                0.7558802962303162,
                0.570947527885437
            ],
            "scale": [
                1.0,
                0.9999999403953552,
                1.0
            ],
            "translation": [
                4.076245307922363,
                1.0054539442062378,
                5.903861999511719
            ]
        },
        {
            "mesh": 0,
            "name": "Suzanne",
            "rotation": [
                0.0,
                0.0,
                0.0,
                1.0
            ],
            "scale": [
                1.0,
                1.0,
                1.0
            ],
            "translation": [
                0.0,
                0.0,
                0.0
            ]
        },
        {
            "children": [
                2,
                1,
                0
            ],
            "matrix": [
                -1.0,
                0.0,
                0.0,
                0.0,
                0.0,
                0.0,
                1.0,
                0.0,
                0.0,
                1.0,
                0.0,
                0.0,
                0.0,
                0.0,
                0.0,
                1.0
            ],
            "name": "Scene_root"
        }
    ],
    "scene": 0,
    "scenes": [
        {
            "extras": {
                "active_camera": 0,
                "background_color": [
                    0.05087608844041824,
                    0.05087608844041824,
                    0.05087608844041824
                ],
                "frames_per_second": 24
            },
            "name": "Scene",
            "nodes": [
                3
            ]
        }
    ]
}
